<?xml version="1.0" encoding="utf-8"?>
<!-- Generator: Adobe Illustrator 27.4.1, SVG Export Plug-In . SVG Version: 6.00 Build 0)  -->
<svg version="1.1" id="Layer_1" xmlns="http://www.w3.org/2000/svg" xmlns:xlink="http://www.w3.org/1999/xlink" x="0px" y="0px"
	 viewBox="0 0 75 75" style="enable-background:new 0 0 75 75;" xml:space="preserve">
<style type="text/css">
	.st0{fill:#FFFFFF;}
	.st1{fill:#DE4C36;}
</style>
<g>
	
		<rect x="16" y="10.2" transform="matrix(0.7071 -0.7071 0.7071 0.7071 -13.6108 34.9118)" class="st0" width="38.7" height="47.4"/>
	<path class="st1" d="M73.3,34.2L40.8,1.7c-1.9-1.9-4.9-1.9-6.8,0l-6.8,6.8l8.6,8.6c2-0.7,4.3-0.2,5.9,1.4c1.6,1.6,2,3.9,1.4,5.9
		l8.3,8.3c2-0.7,4.3-0.2,5.9,1.4c2.2,2.2,2.2,5.8,0,8.1c-2.2,2.2-5.8,2.2-8.1,0c-1.7-1.7-2.1-4.1-1.2-6.2L40.2,28l0,20.3
		c0.6,0.3,1.1,0.6,1.5,1.1c2.2,2.2,2.2,5.8,0,8.1c-2.2,2.2-5.8,2.2-8.1,0c-2.2-2.2-2.2-5.8,0-8.1c0.5-0.5,1.2-1,1.9-1.2V27.7
		c-0.7-0.3-1.3-0.7-1.9-1.2c-1.7-1.7-2.1-4.2-1.2-6.2L24,11.7L1.7,34c-1.9,1.9-1.9,4.9,0,6.8l32.5,32.5c1.9,1.9,4.9,1.9,6.8,0
		L73.3,41C75.2,39.1,75.2,36.1,73.3,34.2"/>
</g>
</svg>
