<?xml version="1.0" encoding="utf-8"?>
<!-- Generator: Adobe Illustrator 27.4.1, SVG Export Plug-In . SVG Version: 6.00 Build 0)  -->
<svg version="1.1" id="Layer_1" xmlns="http://www.w3.org/2000/svg" xmlns:xlink="http://www.w3.org/1999/xlink" x="0px" y="0px"
	 viewBox="0 0 75 75" style="enable-background:new 0 0 75 75;" xml:space="preserve">
<style type="text/css">
	.st0{fill:#020202;}
	.st1{fill:#8BC641;}
	.st2{fill:#F1EFEF;}
	.st3{fill:#0E1A26;}
	.st4{opacity:0.3;enable-background:new    ;}
	.st5{fill:none;}
	.st6{opacity:0.4;enable-background:new    ;}
</style>
<g>
	<g>
		<path class="st0" d="M10.1,32.8c-2.2,1-7.9,5.6-9,7c-1.2,1.4-1.5-0.8-0.3-4.3c0.9-2.9,3.3-6.7,7.3-10.1c2.3-1.9,7.5-4.7,10.7-6.3
			c0.6-0.3,8.9-3.8,16.3-5.6c0.6-0.2-0.8,1.1-1,1.7c-1.1,3.2-23.2,17.1-23.2,17.1L10.1,32.8z M41.2,71.9c0.4,2.3,0,2.5-2.3,2.8
			c-2.4,0.3-4.1-0.6-4.8-1.2c-0.6-0.6-0.8-1.9-0.1-3.1c0.4-0.8,0.8-1,1-2c0.2-0.9,0.4-1.1,0.6-1.4c0.2-0.3,0.2-0.6,0.3-2.7
			c0-2.1,0-6,0.2-7.7c0.2-1.7,7.6,0.8,7.6,0.8s-1.7,4.3-2.2,5.4c-0.5,1.1-0.4,3.1-0.4,3.5c0,0.4-0.2,1.3-0.3,1.3
			c-0.1,0,0.4,1.2,0.2,1.8C40.7,70,41.2,71.6,41.2,71.9L41.2,71.9z M44.1,6.7c-0.3-1.6,0-4.8,0.3-5.3c1.1-1.4,6.7-1.6,7.9,0.1
			c0.5,0.8,0.5,2.6,0.4,3.7c-0.1,1.2-0.4,3.6-0.4,4.4c0,0.6-6.2,1.5-7.6-0.1C44.3,9.1,44.1,6.7,44.1,6.7L44.1,6.7z M56.6,67.8
			c2.6,1.9,4.6,2.2,5.9,2.9c1.3,0.7,1,2-1.2,2.4c-1.8,0.3-4.6-0.3-6.5-0.3c-1.9,0-6.1,0.2-7.2-0.6c-1.3-0.9-0.7-2.6-0.7-2.6
			c0.3-0.9,1.2-3,0.9-4.7s-0.6-2.6-1.2-4.2c-0.6-1.6-1.1-5.5-0.5-5.7c0.6-0.2,0.4,0,1.2,0.2c0.8,0.2,1.6,0.4,3.3,0.4
			c1.7,0,3.5-0.3,4.1-0.4c0.6-0.1,1.2-0.3,0.9,1.1c-0.2,1.3-0.9,3.8-0.9,5.7c0,1.9,0,4.1,0.1,4.5C55,66.9,55.9,67.3,56.6,67.8
			L56.6,67.8z"/>
	</g>
	<g>
		<path class="st1" d="M47.5,11c-4.7,4.1-13.8,5.2-27.2,10.4c-3.5,1.3-12.7,5.3-14.9,9.4c7.5-4.3,10.2,1.6,10.8,7.7
			c0.6,5.7,3.4,8.7,10.7,8.5c7.5-0.2,9.8,4.2,11.9,9.4c4.1-19.7,10.5-23.6,14.7-26.9C62.4,22.2,51.5,9.5,47.5,11L47.5,11z"/>
	</g>
	<g>
		<path class="st1" d="M47.5,11C36.2,14.9,25.1,15.9,12,24c-3.1,1.9-9.7,6.3-11,14.6c4.8-5.3,15.8-11.9,29.3-16.2
			c6.8-2.1,11.8-3.5,17.9-5.9C47.8,13.8,47.8,12.7,47.5,11L47.5,11z"/>
	</g>
	<g>
		<path class="st0" d="M61.8,34.4c0,0-0.8,2.8-2.4,3.7c0,0-1.2,0.4-3.6-0.9c-0.7-0.4-1.2-1.7-1.2-2.1c0-1,0.7-1.5,0.7-1.5
			s0.7-1.2,1.5-1.1c0.8,0,2.2,0.2,2.6-0.2C59.8,31.8,61.9,32.9,61.8,34.4L61.8,34.4z M44.4,7.5c0,0-0.2,2.2-0.5,3.5
			c0,0.3-1.3,0.4-2.3,0.8c1.8,5.1,12.6,5.1,14,2.6c-0.7-0.5-2-1.2-2.7-1.4c-0.6-0.3-0.6-0.2-0.6-1.4c0-1.2-0.1-3.4-0.2-4
			C52.1,6.9,45.5,6.9,44.4,7.5L44.4,7.5z"/>
	</g>
	<g>
		<path class="st2" d="M44.9,7.5c0,0,0,1.2-0.1,2.4c0,0.6-0.1,0.9-0.2,1.3c0,0.3,1.4,1.3,1.9,3.5c2,4.6,6.8,2.3,8.7,0.1
			c-0.7-0.5-1.8-1.1-3.1-1.6c-0.6-0.3-0.3-0.8-0.4-2c0-1.2-0.2-2.9-0.3-3.6C51.4,7.1,45.9,6.9,44.9,7.5L44.9,7.5z"/>
	</g>
	<g>
		<g>
			<path class="st0" d="M44.4,7.5c0,0,0,0.8-0.2,1.7c0.6,0.6,1.3,1.3,1.8,1.8c0.4,0.3,1.3,0.3,2.2,0.3c0.8,0,1.4,0.1,1.7-0.1
				c0.7-0.3,1.7-1.2,2.2-1.8c0-0.8-0.1-1.5-0.1-1.8C52.1,6.9,45.5,6.9,44.4,7.5z"/>
		</g>
		<g>
			<path class="st0" d="M48.3,10.8c-0.5,0-1.1,0-1.6-0.1c-0.2,0-0.4-0.2-0.6-0.3c-0.3-0.2-0.6-0.5-0.9-0.7c-0.7-0.5-0.7-0.8-0.7-0.9
				c0.3-2.7-0.1-4.9-0.1-4.9s-0.3-1.2,1.3-1.4S48.3,2,48.3,2s1,0,2.6,0.3c1.6,0.3,1.3,1.4,1.3,1.4S51.9,6,52.2,8.7
				c0,0.1,0,0.4-0.7,0.9c-0.6,0.4-1.1,0.9-1.5,1C49.4,10.7,48.8,10.8,48.3,10.8z"/>
		</g>
		<g>
			<path class="st0" d="M48.3,0.9c-2.8,0-3.4,0.8-4.2,1.6c-0.2,0.2,0,1.5,0.3,4.2h0.4c0,0-0.3-0.8-0.2-1.7s0.2-0.9,0.1-1.1
				c-0.2-0.3-0.5-0.7,0.3-1.1c0.8-0.4,2,0.3,3.4,0.4c1.4,0,2.7-0.8,3.5-0.4C52.5,3.3,52.2,3.7,52,4c-0.2,0.3,0,0.2,0.1,1.1
				c0,0.9-0.2,1.7-0.2,1.7h0.4c0.3-2.7,0.4-3.9,0.3-4.1C51.9,1.7,51.1,0.9,48.3,0.9z M61.8,34.5c0,0-0.8,2.6-2.4,3.5
				c-0.3-0.2-0.3-0.4-0.6-0.8c-0.1-0.1-0.4-0.2-0.5-0.3c-0.1-0.1-0.1-0.3-0.3-0.5c-0.2-0.2-0.3,0-0.5-0.2c-0.2-0.2-0.2-0.4-0.3-0.5
				c-0.1-0.1-0.4-0.1-0.5-0.2c-0.2-0.2-2.1-0.6-2-1c0.2-0.6,0.5-1.1,0.5-1.1s0.8-1.2,1.6-1.2c0.8,0,1.6,0.2,2-0.2
				C59.3,31.5,62,33.1,61.8,34.5L61.8,34.5z"/>
		</g>
		<g>
			<path class="st0" d="M56.3,15.6c0,0,2.7-0.6,4.5,1.1c1.8,1.8,1.7,4,1.2,5.4c0.5,0.6,1.3,2.1,0.7,3.9c2.8,2.4,1.6,6.1-0.9,8.5
				c0,0-0.6-2.2-3-2.3c0.1-0.9-2.2-1.5-1.2-3.8C56,28,56,26.9,55.7,25.6C55.5,24.2,56.3,15.6,56.3,15.6L56.3,15.6z"/>
		</g>
	</g>
	<g>
		<path class="st2" d="M55.3,16.8c0,0,3.1-1.6,4.9,0.2c1.8,1.8,1.3,3.8,0.8,5.1c0.5,0.6,1.6,2.1,0.9,4c-0.1,0.4-1.1,0.4-1.7,1.5
			c1.7-1,2.8-0.7,3.2,0.5c0.6,1.9-0.7,4.2-1.9,5.5c0,0,0-0.1,0-0.1c-0.2,0.6-0.4,1.9-1.7,3.2c-0.6,0.7-1.2,0.6-1.9,0.4
			C57,37,56.7,36.7,55.5,36c-0.7-0.4-0.3-0.9-0.3-1.2c0-0.1,0.1-0.2,0.2-0.4c0.1-0.2,0.3-0.6,0.7-0.9c0,0,0.6-0.8,1.4-0.7
			c0.8,0,1.7-0.1,1.9-0.3c0-1.5-1.7-1.5-1.1-4.1c0-0.1,0.3-0.3,0.9-0.4c-1-0.2-1.5-0.3-2.2-0.9c-0.5-0.5-0.9-1.1-1-1.8
			C55.7,23.8,55.3,16.8,55.3,16.8L55.3,16.8z"/>
	</g>
	<g>
		<path class="st0" d="M46.3,14.1c-0.3-0.3-1.6-2-4.1-2.7c-0.7-0.2-1.2,0.4-1.9,0.8c-0.2-0.1-1.2-0.6-1.7-0.3
			c-0.5,0.3-0.9,0.6-1.4,0.8c-0.3-0.1-0.9-0.1-1.5,0.1c-0.6,0.2-1.4,0.6-2.2,1.7c-0.5,1.8,9,0.5,9,0.5L46.3,14.1z"/>
	</g>
	<g>
		<path class="st1" d="M46.4,14.1c-1.4-0.5-1.2-2-4.2-2.3c-0.6,0-1,0.4-1.4,0.7c0.2,0.2,0.4,0.6,0.6,0.9c-0.4-0.4-1.1-1-1.7-1.1
			c-0.6-0.1-1.1,0.3-1.7,0.7c0.1,0.1,0.3,0.3,0.4,0.6c-0.6-0.4-1-0.5-1.8-0.2c-0.6,0.2-1.6,0.6-2.4,1.8C33.5,17,42.7,15,42.7,15
			L46.4,14.1z"/>
	</g>
	<g>
		<path class="st0" d="M54.4,14.8c0,0,0-0.5,0-0.9c0-0.1-0.3-0.3-0.3-0.4L54,13.5c0,0,0.7-0.4,1.2-0.2c0.6,0.2,0.9,0.9,0.9,0.9
			c1-0.3,1.1,0,1.5,0.6c1-0.2,1.2,0.2,1.8,1.1c0,0-0.8-0.1-2.3,0.1C55.6,16.2,54.4,14.8,54.4,14.8L54.4,14.8z"/>
	</g>
	<g>
		<path class="st1" d="M54.3,14.6c0,0,0.3-0.2,0.2-0.3c0.5-0.3,1.1-0.6,1.4,0.3c1-0.3,1.1,0.1,1.6,0.6c1.2-0.6,1.3,0.1,1.4,0.4
			c-0.4,0-0.9,0-1.7,0.1C55.6,16,54.2,14.6,54.3,14.6z"/>
	</g>
	<g>
		<path class="st0" d="M39.8,13.5c0,0,2.4,0.9,4.5,0.7c2-0.2,5.5-0.3,7.4,0.8c0,0,1.9-0.7,3.7-0.2c1.8,0.5,5.1,3.5,4.1,6.8
			c-0.1,0.2-0.6,0.6-1.3,0.8c0,0,0.3,1.4-0.3,2.6c-0.6,1.2-1.9,3.4-2,6.4c0,0.5-0.1,1.6-0.2,2.1c-3.3-0.1-8.4-1.4-13.5-1.3
			c0-0.6,0.1-0.9,0.1-1.4h0.1c-0.3-1.4-0.3-2.1-0.6-3.2c-1.6-1-3.3-2.2-4.8-4.5C35.7,20.9,39.8,13.5,39.8,13.5L39.8,13.5z
			 M56.2,36.6c0,0,2.6,9.5-0.5,13.4c0,0,0.5,1.8-0.6,3.8c-0.2,0.9-0.4,1.6-0.5,2.5c-0.6,3.5-1.5,5-1.7,10.7l-2.6,0
			c0,0-0.3-4.1-1.2-6.3c-0.5-1.2-2.5-2.9-2.4-4.6c0.1-1.3,0.3-2.3,2.5-4.1c0.2-2.5-2.3-4.8-1.9-14L56.2,36.6z"/>
	</g>
	<g>
		<path class="st2" d="M55.4,36.2c0.7,4.3,2.3,10.8-0.6,13.9c0.2,0.8,0.2,1.6,0,2.4c-0.1,0.5-0.3,1.1-0.5,1.7
			c-0.4,1-0.6,2.5-0.7,3.4c-0.6,3.5-0.6,3.7-0.8,9.4l-2.6,0c0,0-0.3-4.1-1.2-6.3c-0.5-1.2-1.6-2.3-1.7-4c-0.1-1.3,0.8-3.8,2.9-3.8
			c-0.1-5.2-2.5-4.1-3.2-14.9L55.4,36.2z M39.8,13.5c0,0,0.9,0.3,2,0.4c1,0.1,2.1,0,3.1,0c2-0.2,4.9-0.4,6.9,0.7
			c0,0,1.1-0.3,2.2-0.3c0.5,0,1,0.5,1.6,0.6c1.9,0.5,3.7,3.6,2.9,6.4c-0.1,0.2-0.7,0-1.4,0.2c0.1,0.6,0.2,2-0.5,3.4
			c-0.7,1.4-1.7,3.3-1.5,6.9c-4.5-0.2-6.5-0.5-10.9-0.7c-0.4-1.6-0.6-3.2-0.7-4c0.6-0.3,0.9-0.6,1.4-1.1c-1.3,0.2-1.8,0.1-2.6-0.3
			c-0.8-0.4-2.1-1.8-2.8-2.7c-0.1-0.1-0.6,1.3-1.6,1.4c-0.4-0.6,1.2-2.1,0.9-2.7C37.8,19.6,39.8,13.5,39.8,13.5L39.8,13.5z"/>
	</g>
	<g>
		<path class="st0" d="M55.8,32.6c0,0,0.1,1.5,0.1,1.9c0,0.4,0.3,1.7,0.4,2.3c-0.5,0.8-2.5,2.6-6.2,3.3c-3.7,0.8-8.5-5-8.5-5
			c0.1-0.6,0.6-2.2,0.9-3c0-0.1,0.1-0.3,0.1-0.4C42.9,31.2,55.8,32.6,55.8,32.6z"/>
	</g>
	<g>
		<path class="st2" d="M54.8,32.8c0,1.1,0.2,1.8,0.3,2.5c0.2,1.2,0.6,2,0.6,2.9c0,2.5-3.2,2-6,2.1c-3.7,0.8-6.8-5-6.8-5
			c0.3-1,0.4-2.1,0.8-3c0-0.5,0.1-1.2,0.2-1.4c5.2,0,8.9,0.3,11,0.5C55,31.8,54.9,32.6,54.8,32.8L54.8,32.8z"/>
	</g>
	<g>
		<path class="st0" d="M50.8,38.3c0,0-2.3-5-9-3.5c-1.6,4.6-3.8,9.8-2.4,15.5c-1.4,1.9-3,3-3,6.5c0,3.5,0.2,4.1,0.2,4.1l5,0.3
			c0,0,1.6-2.1,2.3-4.3c0.2-0.6,0.3-1.8,0.2-3.1c0.2-0.3,0.9-0.9,1-2c0,0,2.4-1.3,3.8-4.4C50.1,44.5,49.7,42,50.8,38.3L50.8,38.3z"
			/>
	</g>
	<g>
		<path class="st2" d="M50.8,38.3c-0.1-0.5-1.8-5.1-8.1-3.7c-3.7,9.9-2.3,14-1.8,15.8c-2.5,3.2-3.7,3.9-3.2,10.4H41
			c1.5-2.4,1.9-3.3,2-6.5c0-0.1-0.5,0.3-0.8,0.7c0.3-1.3,1-1.6,1.5-2.4c0.3-0.3,0.5-0.9,0.5-1.5c3-2,4.1-4.5,4.7-7.1
			C49.4,42,50,39.1,50.8,38.3L50.8,38.3z"/>
	</g>
	<g>
		<g>
			<path class="st0" d="M40.2,31.4c0,0,1.2,0,2.2,0.4c1,0.3,1,0.6,1.4,1c0.4,0.4,1.3,1.1,1.2,1.7c-0.1,0.3-0.3,0.4-0.6,0.7
				c-0.1,0.1-1.1,1.2-1.3,1.3c-0.1,0.1-0.3,0.2-0.4,0.3L42,37.2c-0.4,0.2-0.7,0.3-1.2,0.3c0,0-1.1,0-1.7-0.8c0,0-0.1-0.3,0.1-0.5
				c0,0-0.9-0.8-1.2-1.3c-0.3-0.5-0.3-1.2-0.1-1.6C38,32.9,39.6,31.9,40.2,31.4L40.2,31.4z M41.3,72.9L41.2,74c0,0-0.4,0.5-3.2,0.4
				c-2.9,0-3.7-0.9-3.9-1.4l-0.2-1.1c0,0,0.6-0.8,0.7-0.8c0.9,0.1,4.1,1.4,6.4,1.7C41.1,72.8,41.1,72.9,41.3,72.9L41.3,72.9z
				 M47.5,70.7c0,0.5,0,0.5,0,0.9c0.5,0.4,1.8,0.6,4.2,0.6c3.5-0.1,6.8,1.1,10.8,0.4l0-0.8l-0.4,0l-14.2-1.2L47.5,70.7z"/>
		</g>
		<g>
			<path class="st0" d="M50.6,72.2h1.1c2.3-0.1,4.5,0.4,6.8,0.6c1.2,0,2.8-0.3,2.6-1.2l-12.1-1C48.3,71.3,48.8,72,50.6,72.2
				L50.6,72.2z M36.7,54.3c0.4,0.3,3,1.8,7.2,1.6c-0.1,0.8,0,2.4-1.9,5.2c-0.9,1.4-1.7,3.8-1.9,6.8c0,0.7,0.4,1.3-0.1,2.2
				c0.2,0.6,0.9,1.7,1.2,2.3c0.3,0.7,0.5,1.4-1.7,1.5c-2.3,0-6-0.2-5.5-2c0.3-0.9,1-1.9,1.1-2.3c0.1-0.4,0.1-1.5,0.8-2.3
				c0.6-2.1,0.4-4.2,0.3-6.1C35.9,59.1,35.8,55.9,36.7,54.3L36.7,54.3z M40.7,19.5c3-4.1,0.5-7.3-4.4-6.3c-2,0.4-3.9,1.7-4.1,4.2
				c-0.6,0.1-2.1,0.2-2.8,2.8c-0.6,2-0.9,2.4-1.8,3.5c-0.6,0.7,0,2.2,0.5,3.3c1.6,3.7,6.4,4,9.7,6.8c1.1-0.3,2.3-1.5,2.6-2.3
				c-2.8-3.3-2.2-4.6-3.3-6.3C38.3,24.7,41,23.1,40.7,19.5L40.7,19.5z"/>
		</g>
	</g>
	<g>
		<path class="st2" d="M40.1,19.3c0.2-0.3,0.5-0.8,0.6-1c0,0,0.5,0.8,0.6,0.7c1.2-1.9,1.4-4.6,0.1-4.9c-0.3,0-0.9-0.2-1.3-0.3
			c-0.9-0.3-1.6-0.3-3,0c-1.9,0.3-3.8,1.7-3.8,3.7c0,0.1,1.3,0.5,1.7,2.1c-0.6-0.9-1.7-1.9-3.1-1c-1.4,0.9-0.7,2.9-2.6,5.1
			c-0.6,0.7-0.6,1.6,0.1,3.3c1.1,2.7,6.4,4.1,9.2,6.7c0.7-0.3,1.2-1,1.5-1.5c-1.9-2-2.7-3.9-3.2-5.2c-0.7-1.6-1.4-2.5-2.9-3.7
			c0.8,0.3,1.4,0.6,1.7,0.9c0.4,0.3,0.9,0.3,1.4,0.1C39,23.4,40,20.9,40.1,19.3L40.1,19.3z"/>
	</g>
	<g>
		<path class="st0" d="M58.6,19.9c-0.1,1.6-1.3,0.8-2,0.5c-1.3-0.6-2.6-0.9-4.1-0.9c-1.5,0-3.4,0.1-5.1,0.6c-2.3,0.6-3,0.6-4,0.1
			c-1-0.6-2.8-1.9-2.8-1.9s0,0.4,0.4,1c0.6,0.7,1.8,1.5,3.5,2.1c0.8,0.3,1.4,0.1,2.2-0.1c3.8-0.9,7.8-1.1,11.2,0.9
			c0.2,0.1,0.8-0.2,1-0.6C59.2,21.1,58.6,19.9,58.6,19.9z"/>
	</g>
	<g>
		<path class="st3" d="M39.2,36.2c0.3,0.2,0.8,0.3,1.2,0.7c0,0-0.4,0-0.6-0.2C39.7,36.6,39.2,36.2,39.2,36.2z"/>
	</g>
	<g>
		<path class="st2" d="M51.5,2.4c-0.1-0.4-1.1-1.1-3.2-1.1c-2.3,0-3,0.7-3.1,1.1c0,0.1-0.2,1.5-0.2,2c0,0,0,0.7,0,1.7
			c0,0.7,0.2,1.1,0.3,2c0.1,0.9,0.3,1.5,0.8,2.3c0.2,0.1,0.4,0.3,0.6,0.3c0.9,0.2,2.3,0.2,3.2,0c0.5-0.1,1.1-0.9,1.2-1.7
			c0.2-0.9,0.3-1.5,0.4-2.1c0.1-0.6,0.1-1.8,0.2-2.1C51.8,3.9,51.6,2.5,51.5,2.4L51.5,2.4z"/>
	</g>
	<g>
		<path class="st0" d="M47,55.1c0,0,2.3,1,7.8,0.1c0,0-1.6,7.9-0.9,11.9c0,0,0.7,1,6.1,3c0,0,2.4,0.6,2.3,1.8c0,0,0.1,0.3-2.8,0.2
			s-5.6-0.6-7.5-0.6s-4,0.1-4.3-0.5c-0.4-0.5,0.1-1.8,0.6-2.6c0.6-0.8,0.4-1.4,0.4-2.9C48.7,61.7,45.8,57.8,47,55.1L47,55.1z"/>
	</g>
	<g>
		<path class="st1" d="M46.6,55.8c-0.3,0.4,0,2,0.5,3.6c0.4,1.6,1.4,2.5,1.6,5.1c0.2,2.6,0.3,2.9-0.5,4.4c-0.7,1.5-0.9,2.9,1.6,2.9
			c2.5,0,3.9,0,6.4,0.3c2.6,0.4,3.5,0.5,4.9,0.3c1.4-0.2,1.7-0.7,1.1-1.1c-0.6-0.4-3.1-0.9-4.1-1.7c-1-0.8-3.9-2-4-2.4
			c-0.1-1.2-0.2-5.3,0-6.7c0.2-1.4,0.5-3.3,0.6-3.8c0.1-0.5,0.5-1-0.2-0.9C53.7,56,51,56.4,49,56.3C46.9,56.1,46.7,55.7,46.6,55.8
			L46.6,55.8z"/>
	</g>
	<g class="st4">
		<path class="st0" d="M48,69c0.7,0.3,1.8,0.6,2.6,0.6c0,0-0.3,1.4,0.2,2.3c0.5,0.9-3.4,0.3-3.4,0.3l-0.2-3L48,69z M59.3,72.6
			c0.7-0.2,1.2-1,0.6-1.7c-0.6-0.7-1.1-0.9-0.3-0.9c0.8,0,3.6,1.7,3.6,1.7L61.7,73L59.3,72.6z M46.5,57.5c1,0.3,2.5,0.4,3.8,0.4
			c1.3,0,3.2-0.2,4.4-0.6c1.2-0.4,0.7,0.5,0.7,0.5l-0.7,0.6c0,0-1.6,0.6-4.3,0.6c-3.1,0-4.1-0.4-4.1-0.4L46.5,57.5z M46.5,59.6
			c1,0.3,2.5,0.4,3.8,0.4c1.3,0,3,0,4.2-0.5c0.5-0.2,0.2,0.6,0.2,0.6l-0.2,0.4c0,0-1.7,0.6-4.3,0.6c-3.1,0-3.7-0.3-3.7-0.3
			L46.5,59.6z"/>
	</g>
	<g>
		<path class="st5" d="M47,55.1c0,0,3.7,1.3,7.9,0.4c0,0-1.6,7.6-0.9,11.6c0,0,0.7,1,6.1,3c0,0,2.4,0.6,2.3,1.8c0,0,0.1,0.3-2.8,0.2
			c-2.9-0.1-5.6-0.6-7.5-0.6s-4,0.1-4.3-0.5c-0.4-0.5,0.1-1.8,0.6-2.6c0.6-0.8,0.4-1.4,0.4-2.9C48.7,61.7,45.8,57.8,47,55.1L47,55.1
			z"/>
	</g>
	<g>
		<path class="st5" d="M47,55.1c0,0,3.7,1.3,7.9,0.4c0,0-1.6,7.7-0.9,11.6c0,0,0.7,1,6.1,3c0,0,2.4,0.6,2.3,1.8c0,0,0.1,0.3-2.8,0.2
			c-2.9-0.1-5.7-0.9-7.5-0.6c-2,0.3-4,0.2-4.3-0.5c-0.3-0.6,0.1-1.8,0.6-2.6c0.6-0.8,0.4-1.4,0.4-2.9C48.7,61.7,45.8,57.8,47,55.1
			L47,55.1z"/>
	</g>
	<g>
		<path class="st0" d="M43.7,29.7c0,0.3,3.3,2,5.2,2.3c1.8,0.3,5.7,0,6.3-0.1l-0.1,0.6c0,0-4.6,0.7-8.1-0.3
			c-3.5-0.9-3.1-1.2-3.1-1.2L43.7,29.7z"/>
	</g>
	<g>
		<path class="st2" d="M36.6,66.1c0.5,0.3,2.3,0.7,3.5,0.5c0.2,0,0-2.9,0.5-4.3c0.7-1.8,1.8-3.3,2.3-6.6c-1.8-0.2-3.8-0.6-4.9-1
			C36.6,58.9,37.1,62.5,36.6,66.1L36.6,66.1z M39.5,68.8c0.3,0.1,0.5,0.4,0.6,0.2c0.2-0.4-0.3-1.1-0.3-1.6v0c-0.4-0.3-3-0.4-2.8-0.2
			c-0.3,0.6-0.8,0.5-0.9,1.6c-0.1,0.6,0.6,0.1,1.2,0c-1.2,0.8-2.5,1.7-2.7,2.6c-0.3,1.2,0.2,1.5,1.4,2.2c1.1,0.3,2.4,0.3,3.5,0.3
			c1.2-0.2,1.4-0.8,1-1.5C39.9,71.1,39.6,69.6,39.5,68.8L39.5,68.8z"/>
	</g>
	<g>
		<path class="st0" d="M39.9,13.4c1.4,0.8,3.4,0.6,4.1,0.6c0.2,0,1.9-0.3,2-0.3c0.2,0,0.2,0.2,0.2,0.2s-0.6,0.3-2.1,0.4
			c-1.4,0.1-3,0-3.9-0.4C39.1,13.4,39.9,13.4,39.9,13.4L39.9,13.4z M54.4,14.2c0.3,0.2,1.9,0.8,2.6,1.6c0.6,0.7,0.3,0.6,0.2,0.5
			c-0.2-0.2-1.5-1.1-2-1.3s-1.2-0.6-1.2-0.7C54.1,14.1,54.4,14.2,54.4,14.2L54.4,14.2z"/>
	</g>
	<g>
		<path class="st2" d="M39.7,31.9c1.2-0.1,2.5,0.2,3.3,1.1c0.4,0.4,1.1,0.9,1,1.3c0,0.1-0.3,0.5-0.5,0.7c-0.1,0.2-0.5,0.6-0.6,0.7
			c-0.2,0.1-0.8,0.6-0.9,0.7c-0.1,0.1-0.3,0.3-0.4,0.3c-0.4,0.2-0.9,0-1.3-0.2c-0.4-0.2,0.1-0.3-0.4-0.6c-1.2-0.8-1.8-1.4-1.3-2.9
			C38.6,32.7,39.1,32.3,39.7,31.9L39.7,31.9z"/>
	</g>
	<g class="st6">
		<path class="st0" d="M28.8,22.1C25,23.7,15.2,28.5,12.5,30c2.3,1.4,3.4,4.9,3.7,8.5c0,0.3,0.1,0.6,0.1,1c0,0.3,0.1,0.5,0.1,0.6
			c0,0,0,0.1,0,0.2C19,33.4,28,26.2,28.3,25.6c0.2-0.3-0.2-1.4,0.4-2.4C29.5,21.8,31,21.2,28.8,22.1L28.8,22.1z M38,54.3
			c2-3.9,2-7.7,2-12.1c0-1.8,1.3-4.4,0.6-3.7c-2.6,2.9-9,8.2-13.6,8.5C33.4,46.8,36,50.1,38,54.3z"/>
	</g>
	<g>
		<path class="st0" d="M8.7,33.6c2.4-1.7,15-8.4,18-9.4c3-1,2.1-2.1,2.1-2.1S16.6,27.4,9.2,32"/>
	</g>
	<g class="st6">
		<path class="st0" d="M44.5,21.3c-1-0.4-1.7,0.8-1.5,1.9c0.3,1.1,2.6,2.3,2.4,6.4c-0.1,3.3-0.8,4.7-0.8,4.7l-1.6-2
			c0,0-0.3-4.6-0.8-5.3c-0.6-0.7-2.3-1.9-3-2.6c-0.7-0.6,0.8-1.5,0.7-2.7c-0.1-1.2,0.7-3.5,0.7-3.5L44.5,21.3z M50.5,39.5
			c-0.1,3.2,0.6,7.9,0.9,10.2c0.3,2.3,0.7,2.4,0,3.5c-0.7,1-1.6,2.6-1.6,2.6l-2.9-0.3c0,0,2.3-3,2.5-3.5c0.1-0.6-1.2-4.8-1.2-4.8
			L50.5,39.5z M44.8,9.6c0.6,1.3,1.3,1.9,2.5,2.3c0.7,0.3,3.4,0.6,4.4-0.6c0.5-0.6,0.2-2,0.2-2l-2.4,2l-3.3-0.6l-0.4-1L44.8,9.6z"/>
	</g>
	<g>
		<path class="st1" d="M45,12.6c1.1,0.7,3.9,1.4,4.6,1.5c0.8,0.2,2-0.8,2.6-1.1c0.6-0.3,1.7-0.5,3,0.7c0.1,0.1-0.3,0.7-0.3,0.7
			c0,0-0.3,0-0.6-0.2c-0.3-0.2-0.6-0.3-1.2-0.3c-2.1,0.3-2.5,1-4.3,0.6c-1.9-0.4-2.3-0.8-4.2-0.7"/>
		<path class="st0" d="M49.9,14.8c-0.3,0-0.7,0-1.1-0.1c-0.5-0.1-0.9-0.2-1.3-0.3c-1-0.3-1.5-0.4-2.9-0.4l0-0.3c1.4-0.1,2,0.1,3,0.4
			c0.4,0.1,0.8,0.2,1.3,0.3c1.1,0.3,1.7,0.1,2.4-0.1c0.5-0.1,1-0.3,1.9-0.4c0,0,0,0,0,0c0.6,0,0.9,0.1,1.2,0.3
			c0.2,0.1,0.4,0.1,0.5,0.2c0,0,0,0,0,0c0.1-0.2,0.2-0.3,0.2-0.4c-1.2-1.1-2.3-0.9-2.8-0.6c0,0,0,0,0,0c-0.2,0.1-0.4,0.2-0.6,0.3
			c-0.7,0.4-1.5,0.9-2.1,0.7c-0.9-0.1-3.6-0.8-4.7-1.6l0.2-0.3c1.1,0.7,3.7,1.4,4.6,1.5c0,0,0,0,0,0c0.5,0.1,1.3-0.4,1.8-0.7
			c0.3-0.2,0.5-0.3,0.7-0.4c0.6-0.3,1.8-0.6,3.2,0.7c0,0,0,0,0,0c0.2,0.2,0.1,0.5-0.3,0.9c0,0-0.1,0.1-0.1,0.1c0,0-0.1,0-0.1,0
			c0,0,0,0-0.1,0c-0.1,0-0.3-0.1-0.5-0.2c-0.3-0.2-0.6-0.3-1.1-0.2c-0.8,0.1-1.3,0.3-1.8,0.4C50.9,14.7,50.5,14.8,49.9,14.8z
			 M54.9,14.5C54.9,14.5,54.9,14.5,54.9,14.5C54.9,14.5,54.9,14.5,54.9,14.5z"/>
	</g>
	<g>
		<path class="st1" d="M44.7,12.7c1.4,0.6,4.1,1.2,4.9,1.4c0.8,0.2,2-0.6,2.6-1c1.1-0.7,2.4-0.1,3.1,0.6c0.4,0.5,0.6,0.8,0.6,0.9
			c0,0.2-0.5,0-0.5,0c-0.3-0.1-0.6-0.2-0.9-0.3c-0.3-0.2-0.7-0.4-1.2-0.4c-2.1,0.3-2.6,1-4.4,0.6s-2.3-0.8-4.3-0.7"/>
	</g>
	<g>
		<path class="st0" d="M38.1,52.5c-0.1-0.1,0.1-0.2,0-0.2c-0.6,0-1.3-0.4-1.7-1c-1.8-2.6-4.5-4.4-9.4-4.3
			c-7.3,0.2-10.2-2.8-10.7-8.5c-0.3-3.1-1.2-6.1-2.9-7.8l-1,0.6c2,1.7,2.6,4.5,3,8.3C16,45.3,20.6,48,25.9,48
			c5.6,0.1,7.6,1.2,9.7,4.1c0.7,0.9,1.4,1.2,2,1.3L38.1,52.5z"/>
	</g>
	<g class="st6">
		<path class="st0" d="M57.8,25.1c0.1,0.6,0.5,1.9,1.2,2.5c0.3,0.3,0.3,0.4,0.1,0.4c-0.3,0-2.1-0.1-2.1-0.1L56.4,27L57.8,25.1z"/>
	</g>
</g>
</svg>
