<?xml version="1.0" encoding="utf-8"?>
<!-- Generator: Adobe Illustrator 27.4.1, SVG Export Plug-In . SVG Version: 6.00 Build 0)  -->
<svg version="1.1" id="Layer_1" xmlns="http://www.w3.org/2000/svg" xmlns:xlink="http://www.w3.org/1999/xlink" x="0px" y="0px"
	 viewBox="0 0 75 75" style="enable-background:new 0 0 75 75;" xml:space="preserve">
<style type="text/css">
	.st0{fill:#F6DF19;}
	.st1{fill:#010101;}
</style>
<g>
	<path class="st0" d="M5.1,0h64.9c2.8,0,5,2.2,5,5v64.9c0,2.8-2.2,5-5,5H5.1c-2.8,0-5-2.2-5-5V5.1C0,2.3,2.3,0,5.1,0z"/>
	<path class="st1" d="M19.7,62.6l3.1-1.9c1.3-0.8,3.1-0.6,4.1,0.6c0.8,0.9,1.7,1.5,3.1,1.5c2.3,0,3.8-0.9,3.8-4.4V37.7
		c0-1.8,1.5-3.2,3.2-3.2h0.5c1.8,0,3.2,1.5,3.2,3.2v20.8c0,7.3-4.3,10.6-10.5,10.6C24.7,69.1,21.4,66.2,19.7,62.6"/>
	<path class="st1" d="M44.6,61.9l3.3-1.9c1.3-0.8,2.9-0.5,4,0.6c1.3,1.4,3,2.3,5.4,2.3c2.9,0,4.8-1.5,4.8-3.5c0-2.4-1.9-3.3-5.1-4.7
		l-1.8-0.8c-5.1-2.2-8.4-4.9-8.4-10.6c0-5.3,4-9.3,10.3-9.3c3,0,5.4,0.7,7.3,2.3c1.7,1.4,1.5,4.1-0.3,5.2l0,0
		c-1.2,0.8-2.8,0.6-3.9-0.3c-0.8-0.8-1.8-1.1-3.1-1.1c-2.1,0-3.4,1.3-3.4,3c0,2.1,1.3,3,4.3,4.3l1.8,0.8c6,2.6,9.4,5.2,9.4,11.1
		c0,6.3-5,9.8-11.7,9.8C50.9,69.1,46.7,66,44.6,61.9"/>
</g>
</svg>
