<?xml version="1.0" encoding="utf-8"?>
<!-- Generator: Adobe Illustrator 27.4.1, SVG Export Plug-In . SVG Version: 6.00 Build 0)  -->
<svg version="1.1" id="Layer_1" xmlns="http://www.w3.org/2000/svg" xmlns:xlink="http://www.w3.org/1999/xlink" x="0px" y="0px"
	 viewBox="0 0 75 75" style="enable-background:new 0 0 75 75;" xml:space="preserve">
<style type="text/css">
	.st0{fill:url(#SVGID_1_);}
</style>
<g>
	
		<linearGradient id="SVGID_1_" gradientUnits="userSpaceOnUse" x1="-36.8627" y1="112.5682" x2="-36.5629" y2="112.4644" gradientTransform="matrix(256 0 0 -153.6 9435 17319.8008)">
		<stop  offset="0" style="stop-color:#2399BD"/>
		<stop  offset="1" style="stop-color:#4FC0AA"/>
	</linearGradient>
	<path class="st0" d="M37.5,15.1c-10,0-16.2,5-18.7,14.9c3.7-5,8.1-6.8,13.1-5.6c2.8,0.7,4.9,2.8,7.1,5.1c3.7,3.7,7.9,8,17.2,8
		c10,0,16.2-5,18.7-14.9c-3.7,5-8.1,6.8-13.1,5.6c-2.8-0.7-4.9-2.8-7.1-5.1C51,19.4,46.8,15.1,37.5,15.1z M18.8,37.5
		c-10,0-16.2,5-18.7,14.9c3.7-5,8.1-6.8,13.1-5.6c2.8,0.7,4.9,2.8,7.1,5.1c3.7,3.7,7.9,8,17.2,8c10,0,16.2-5,18.7-14.9
		c-3.7,5-8.1,6.8-13.1,5.6c-2.8-0.7-4.9-2.8-7.1-5.1C32.3,41.8,28.1,37.5,18.8,37.5z"/>
</g>
</svg>
